<svg version="1.1" xmlns="http://www.w3.org/2000/svg" xmlns:xlink="http://www.w3.org/1999/xlink" width="33" height="27"><defs/><g><path fill="rgb(109,110,113)" stroke="none" paint-order="stroke fill markers" fill-rule="evenodd" d=" M 27.33031177520752 25.271422863006592 C 27.33031177520752 25.271422863006592 5.311402320861816 25.271422863006592 5.311402320861816 25.271422863006592 C 3.2846059799194336 25.271422863006592 1.6416635513305664 23.64227294921875 1.6416635513305664 21.633042097091675 C 1.6416635513305664 21.633042097091675 1.6416635513305664 5.260581970214844 1.6416635513305664 5.260581970214844 C 1.6416635513305664 3.2513511180877686 3.2846059799194336 1.6225051879882812 5.311402320861816 1.6225051879882812 C 5.311402320861816 1.6225051879882812 27.33031177520752 1.6225051879882812 27.33031177520752 1.6225051879882812 C 29.357108116149902 1.6225051879882812 31.00005054473877 3.2513511180877686 31.00005054473877 5.260581970214844 C 31.00005054473877 5.260581970214844 31.00005054473877 21.633042097091675 31.00005054473877 21.633042097091675 C 31.00005054473877 23.64227294921875 29.357108116149902 25.271422863006592 27.33031177520752 25.271422863006592 Z M 6.228837013244629 3.4415435791015625 C 6.228837013244629 3.4415435791015625 16.320857048034668 12.139226198196411 16.320857048034668 12.139226198196411 C 16.320857048034668 12.139226198196411 26.412757873535156 3.4415435791015625 26.412757873535156 3.4415435791015625 C 26.412757873535156 3.4415435791015625 6.228837013244629 3.4415435791015625 6.228837013244629 3.4415435791015625 Z M 29.165181159973145 5.260581970214844 C 29.165181159973145 4.737527370452881 28.939041137695312 4.269189834594727 28.582128524780273 3.937239646911621 C 28.582128524780273 3.937239646911621 16.320857048034668 14.356483221054077 16.320857048034668 14.356483221054077 C 16.320857048034668 14.356483221054077 4.0595855712890625 3.937239646911621 4.0595855712890625 3.937239646911621 C 3.7026729583740234 4.269189834594727 3.4765329360961914 4.737527370452881 3.4765329360961914 5.260581970214844 C 3.4765329360961914 5.260581970214844 3.4765329360961914 21.633042097091675 3.4765329360961914 21.633042097091675 C 3.4765329360961914 22.637505531311035 4.298123359680176 23.452080488204956 5.311402320861816 23.452080488204956 C 5.311402320861816 23.452080488204956 27.33031177520752 23.452080488204956 27.33031177520752 23.452080488204956 C 28.34370994567871 23.452080488204956 29.165181159973145 22.637505531311035 29.165181159973145 21.633042097091675 C 29.165181159973145 21.633042097091675 29.165181159973145 5.260581970214844 29.165181159973145 5.260581970214844 Z"/></g></svg>