<svg version="1.1" xmlns="http://www.w3.org/2000/svg" xmlns:xlink="http://www.w3.org/1999/xlink" width="36" height="32"><defs/><g><path fill="rgb(173,255,99)" stroke="none" paint-order="stroke fill markers" fill-rule="evenodd" d=" M 31.19564151763916 5.111703872680664 C 27.565957069396973 1.5215551853179932 21.76404094696045 1.4465725421905518 18.003583908081055 4.824033975601196 C 14.243722915649414 1.4465725421905518 8.442879676818848 1.5215551853179932 4.811764717102051 5.111703872680664 C 1.0707387924194336 8.809969425201416 1.0707387924194336 14.805439710617065 4.811764717102051 18.50461721420288 C 5.881429672241211 19.56166982650757 15.864969253540039 29.42979097366333 15.864969253540039 29.42979097366333 C 17.04752540588379 30.59870958328247 18.960476875305176 30.59870958328247 20.143033027648926 29.42979097366333 C 20.143033027648926 29.42979097366333 31.074524879455566 18.624792098999023 31.19564151763916 18.50461721420288 C 34.93666744232178 14.805439710617065 34.93666744232178 8.809969425201416 31.19564151763916 5.111703872680664 Z M 29.76870632171631 17.094639539718628 C 29.76870632171631 17.094639539718628 18.716217041015625 28.019914627075195 18.716217041015625 28.019914627075195 C 18.323780059814453 28.409115076065063 17.682910919189453 28.409115076065063 17.291189193725586 28.019914627075195 C 17.291189193725586 28.019914627075195 6.238699913024902 17.094639539718628 6.238699913024902 17.094639539718628 C 3.288508415222168 14.179638624191284 3.288508415222168 9.436074495315552 6.238699913024902 6.520668268203735 C 9.08255672454834 3.709629774093628 13.654709815979004 3.6112403869628906 16.64793586730957 6.299368143081665 C 16.64793586730957 6.299368143081665 18.003583908081055 7.517126798629761 18.003583908081055 7.517126798629761 C 18.003583908081055 7.517126798629761 19.359827995300293 6.299368143081665 19.359827995300293 6.299368143081665 C 22.35305404663086 3.6112403869628906 26.92616081237793 3.709629774093628 29.76870632171631 6.520668268203735 C 32.719136238098145 9.436074495315552 32.719136238098145 14.179638624191284 29.76870632171631 17.094639539718628 Z M 11.25538444519043 7.344565391540527 C 11.253477096557617 7.344565391540527 11.253477096557617 7.345578670501709 11.251331329345703 7.345578670501709 C 8.906842231750488 7.347402572631836 7.005334854125977 9.245882034301758 7.005334854125977 11.587975025177002 C 7.005334854125977 11.587975025177002 7.005334854125977 11.587975025177002 7.005334854125977 11.587975025177002 C 7.005334854125977 11.863890886306763 7.228852272033691 12.087116241455078 7.505417823791504 12.087116241455078 C 7.781864166259766 12.087116241455078 8.00538158416748 11.863890886306763 8.00538158416748 11.587975025177002 C 8.00538158416748 11.587975025177002 8.00538158416748 11.587063074111938 8.00538158416748 11.587063074111938 C 8.00538158416748 9.795788526535034 9.460569381713867 8.34284782409668 11.254311561584473 8.34284782409668 C 11.254311561584473 8.34284782409668 11.25538444519043 8.34284782409668 11.25538444519043 8.34284782409668 C 11.531830787658691 8.34284782409668 11.755348205566406 8.119622468948364 11.755348205566406 7.8437066078186035 C 11.755348205566406 7.567892074584961 11.531830787658691 7.344565391540527 11.25538444519043 7.344565391540527 Z"/></g></svg>