<svg version="1.1" xmlns="http://www.w3.org/2000/svg" xmlns:xlink="http://www.w3.org/1999/xlink" width="28" height="37"><defs/><g><path fill="rgb(31,170,226)" stroke="none" paint-order="stroke fill markers" fill-rule="evenodd" d=" M 14.460258483886719 34.99482774734497 C 12.385778427124023 35.005669832229614 1.9829797744750977 19.077937841415405 1.9829797744750977 13.748090505599976 C 1.9829797744750977 6.7076256275177 7.569246292114258 1.0004332065582275 14.460258483886719 1.0004332065582275 C 21.35127067565918 1.0004332065582275 26.93765640258789 6.7076256275177 26.93765640258789 13.748090505599976 C 26.93765640258789 19.006906986236572 16.50219440460205 35.005669832229614 14.460258483886719 34.99482774734497 Z M 14.460258483886719 3.1249752044677734 C 8.717827796936035 3.1249752044677734 4.062585830688477 7.881205320358276 4.062585830688477 13.748090505599976 C 4.062585830688477 18.189900159835815 12.73160457611084 31.81688094139099 14.460258483886719 31.807862758636475 C 16.16197109222412 31.81688094139099 24.85805034637451 18.130420684814453 24.85805034637451 13.748090505599976 C 24.85805034637451 7.881205320358276 20.202808380126953 3.1249752044677734 14.460258483886719 3.1249752044677734 Z M 14.460258483886719 19.059901475906372 C 11.588983535766602 19.059901475906372 9.261422157287598 16.681634426116943 9.261422157287598 13.748090505599976 C 9.261422157287598 10.814647912979126 11.588983535766602 8.436684846878052 14.460258483886719 8.436684846878052 C 17.331533432006836 8.436684846878052 19.65921401977539 10.814647912979126 19.65921401977539 13.748090505599976 C 19.65921401977539 16.681634426116943 17.331533432006836 19.059901475906372 14.460258483886719 19.059901475906372 Z M 14.460258483886719 10.561226844787598 C 12.737565040588379 10.561226844787598 11.340909004211426 11.988227605819702 11.340909004211426 13.748090505599976 C 11.340909004211426 15.508358716964722 12.737565040588379 16.93505549430847 14.460258483886719 16.93505549430847 C 16.18307113647461 16.93505549430847 17.57960796356201 15.508358716964722 17.57960796356201 13.748090505599976 C 17.57960796356201 11.988227605819702 16.18307113647461 10.561226844787598 14.460258483886719 10.561226844787598 Z"/></g></svg>