<svg version="1.1" xmlns="http://www.w3.org/2000/svg" xmlns:xlink="http://www.w3.org/1999/xlink" width="32" height="32"><defs/><g><path fill="rgb(109,110,113)" stroke="none" paint-order="stroke fill markers" fill-rule="evenodd" d=" M 5.412583351135254 2.605882406234741 C 5.412583351135254 2.605882406234741 2.831106185913086 5.205854892730713 2.831106185913086 5.205854892730713 C 1.4053630828857422 6.641873836517334 2.091054916381836 8.356037855148315 2.831106185913086 10.40610384941101 C 2.831106185913086 10.40610384941101 6.38092041015625 16.498443603515625 10.969882011413574 21.120211601257324 C 15.848402976989746 26.033702611923218 21.546964645385742 29.255828380584717 21.546964645385742 29.255828380584717 C 23.42975616455078 30.231312036514282 25.284295082092285 30.691847324371338 26.709918975830078 29.255828380584717 C 26.709918975830078 29.255828380584717 29.291515350341797 26.655855894088745 29.291515350341797 26.655855894088745 C 30.004267692565918 25.93815040588379 30.156736373901367 24.65868306159973 29.291515350341797 24.056187391281128 C 29.291515350341797 24.056187391281128 24.12844181060791 20.155874013900757 24.12844181060791 20.155874013900757 C 23.25428009033203 19.559863328933716 22.259836196899414 19.437864542007446 21.546964645385742 20.155874013900757 C 21.546964645385742 20.155874013900757 21.546964645385742 20.155874013900757 21.546964645385742 20.155874013900757 C 21.546964645385742 20.155874013900757 21.546964645385742 20.155874013900757 21.546964645385742 20.155874013900757 C 21.546964645385742 20.155874013900757 20.020012855529785 21.693727493286133 20.020012855529785 21.693727493286133 C 18.22948932647705 20.34829568862915 16.237502098083496 18.70860767364502 14.447813034057617 16.906085729599 C 12.864713668823242 15.311488628387451 11.457924842834473 13.5824294090271 10.286455154418945 11.997255802154541 C 10.286455154418945 11.997255802154541 11.86633586883545 10.40610384941101 11.86633586883545 10.40610384941101 C 12.579207420349121 9.6880943775177 12.458209991455078 8.68636679649353 11.86633586883545 7.806131362915039 C 11.86633586883545 7.806131362915039 7.994060516357422 2.605882406234741 7.994060516357422 2.605882406234741 C 7.281308174133301 1.8878729343414307 6.125454902648926 1.8878729343414307 5.412583351135254 2.605882406234741 C 5.412583351135254 2.605882406234741 5.412583351135254 2.605882406234741 5.412583351135254 2.605882406234741 M 7.915382385253906 11.785176515579224 C 7.915382385253906 11.785176515579224 9.988908767700195 9.696808576583862 9.988908767700195 9.696808576583862 C 10.442500114440918 9.240022420883179 10.365490913391113 8.602669954299927 9.988908767700195 8.042428016662598 C 9.988908767700195 8.042428016662598 7.524733543395996 4.7331602573394775 7.524733543395996 4.7331602573394775 C 7.071142196655273 4.122254371643066 6.335620880126953 4.276374101638794 5.88191032409668 4.7331602573394775 C 5.88191032409668 4.7331602573394775 4.239206314086914 6.387844800949097 4.239206314086914 6.387844800949097 C 3.594999313354492 6.998446702957153 3.7812042236328125 8.421394348144531 4.1217851638793945 9.106168270111084 C 5.646233558654785 12.031200647354126 9.032135009765625 16.535529613494873 11.86633586883545 19.505754232406616 C 15.134458541870117 23.075637340545654 22.8377628326416 27.956095457077026 22.8377628326416 27.956095457077026 C 23.43249797821045 28.270921230316162 25.082950592041016 28.294935941696167 25.53654193878174 27.83784580230713 C 25.53654193878174 27.83784580230713 27.179245948791504 26.18316125869751 27.179245948791504 26.18316125869751 C 27.518515586853027 25.61086130142212 27.670984268188477 24.946960926055908 27.179245948791504 24.528780698776245 C 27.179245948791504 24.528780698776245 23.893718719482422 22.046855211257935 23.893718719482422 22.046855211257935 C 23.337368965148926 21.667584896087646 22.70472526550293 21.59006905555725 22.251014709472656 22.046855211257935 C 22.251014709472656 22.046855211257935 20.22684097290039 24.085471153259277 20.22684097290039 24.085471153259277 C 19.749884605407715 23.74693465232849 12.14564323425293 18.71357274055481 7.915382385253906 11.785176515579224 Z"/></g></svg>